<svg width="50" height="50" viewBox="0 0 50 50" fill="none" xmlns="http://www.w3.org/2000/svg">
<path d="M14.8381 10.8334L14.8381 39.4167C14.8381 40.4281 14.0182 41.248 13.0068 41.248C11.9955 41.248 11.1756 40.4281 11.1756 39.4167L11.1756 10.8334C11.1756 9.822 11.9955 9.00212 13.0068 9.00212C14.0182 9.00212 14.8381 9.822 14.8381 10.8334ZM23.0048 27.1667L23.0048 39.4167C23.0048 40.4281 22.1849 41.248 21.1735 41.248C20.1621 41.248 19.3423 40.4281 19.3423 39.4167L19.3423 27.1667C19.3423 26.1553 20.1621 25.3355 21.1735 25.3355C22.1849 25.3355 23.0048 26.1553 23.0048 27.1667ZM27.5089 10.8334C27.5089 9.822 28.3288 9.00212 29.3402 9.00212C30.3515 9.00212 31.1714 9.822 31.1714 10.8334L31.1714 39.4167C31.1714 40.4281 30.3515 41.248 29.3402 41.248C28.3288 41.248 27.5089 40.4281 27.5089 39.4167L27.5089 10.8334ZM39.3381 27.1667L39.3381 39.4167C39.3381 40.4281 38.5182 41.248 37.5068 41.248C36.4955 41.248 35.6756 40.4281 35.6756 39.4167L35.6756 27.1667C35.6756 26.1553 36.4955 25.3355 37.5068 25.3355C38.5182 25.3355 39.3381 26.1553 39.3381 27.1667Z" fill="#3A86FF" stroke="#3A86FF" stroke-width="0.6" stroke-linecap="round"/>
</svg>
