<svg xmlns="http://www.w3.org/2000/svg" width="139" height="102" viewBox="0 0 139 102" fill="none">
  <path d="M49.148 23.5201L32.2825 71.0687H17.7876L0.922119 23.5201H13.2495L25.035 59.4186L36.8883 23.5201H49.148Z" fill="#8338EC"/>
  <path d="M71.1929 71.6105C67.4902 71.6105 64.1487 70.8203 61.1685 69.2399C58.2334 67.6594 55.9079 65.4017 54.192 62.4666C52.5212 59.5315 51.6858 56.0997 51.6858 52.1712C51.6858 48.2878 52.5438 44.8786 54.2597 41.9435C55.9756 38.9633 58.3237 36.6829 61.3039 35.1025C64.2842 33.522 67.6257 32.7318 71.3284 32.7318C75.0311 32.7318 78.3726 33.522 81.3529 35.1025C84.3331 36.6829 86.6812 38.9633 88.3971 41.9435C90.113 44.8786 90.9709 48.2878 90.9709 52.1712C90.9709 56.0545 90.0904 59.4863 88.3294 62.4666C86.6135 65.4017 84.2428 67.6594 81.2174 69.2399C78.2372 70.8203 74.8957 71.6105 71.1929 71.6105ZM71.1929 61.5861C73.4055 61.5861 75.2795 60.7733 76.8148 59.1477C78.3952 57.5221 79.1854 55.1966 79.1854 52.1712C79.1854 49.1458 78.4178 46.8203 76.8825 45.1947C75.3924 43.5691 73.541 42.7563 71.3284 42.7563C69.0706 42.7563 67.1967 43.5691 65.7066 45.1947C64.2164 46.7751 63.4714 49.1006 63.4714 52.1712C63.4714 55.1966 64.1939 57.5221 65.6388 59.1477C67.129 60.7733 68.9803 61.5861 71.1929 61.5861Z" fill="#8338EC"/>
  <path d="M107.698 20.9463C108.25 20.9463 108.698 21.394 108.698 21.9463V71.0687H97.1156V32.3477C97.1156 31.7954 97.5633 31.3477 98.1156 31.3477H101.907C102.459 31.3477 102.907 31.7954 102.907 32.3477V50.9463V30.263V21.9463C102.907 21.394 103.354 20.9463 103.907 20.9463H107.698Z" fill="#8338EC"/>
  <path d="M138.156 61.2474V71.0687H132.264C128.064 71.0687 124.79 70.0527 122.442 68.0207C120.094 65.9435 118.92 62.5795 118.92 57.9285V42.8918H114.314V33.2737H118.92V24.062H130.503V33.2737H138.089V42.8918H130.503V58.0639C130.503 59.1928 130.774 60.0056 131.315 60.5023C131.857 60.999 132.76 61.2474 134.025 61.2474H138.156Z" fill="#8338EC"/>
  <path d="M39.4462 90.0412L91.1938 54.7234L71.7599 48.319L98.3115 12.9063L46.5549 48.2211L65.9888 54.6255L39.4462 90.0412Z" fill="#F7D928"/>
  <path d="M71.7598 48.3197L68.7094 47.3144L90.5207 18.2168L98.3114 12.907L71.7598 48.3197Z" fill="#E5C528"/>
  <path d="M91.1935 54.7237L39.446 90.0414L44.1802 83.7143L88.1431 53.7184L91.1935 54.7237Z" fill="#E5C528"/>
  <mask id="mask0_56_366" style="mask-type:alpha" maskUnits="userSpaceOnUse" x="51" y="32" width="41" height="40">
    <path d="M71.2905 71.5193C67.5878 71.5193 64.2463 70.7291 61.2661 69.1487C58.331 67.5682 56.0055 65.3105 54.2896 62.3754C52.6188 59.4403 51.7834 56.0085 51.7834 52.08C51.7834 48.1966 52.6414 44.7874 54.3573 41.8523C56.0732 38.8721 58.4213 36.5917 61.4015 35.0113C64.3818 33.4308 67.7233 32.6406 71.426 32.6406C75.1287 32.6406 78.4702 33.4308 81.4505 35.0113C84.4307 36.5917 86.7788 38.8721 88.4947 41.8523C90.2106 44.7874 91.0686 48.1966 91.0686 52.08C91.0686 55.9633 90.188 59.3951 88.427 62.3754C86.7111 65.3105 84.3404 67.5682 81.315 69.1487C78.3348 70.7291 74.9933 71.5193 71.2905 71.5193ZM71.2905 61.4949C73.5031 61.4949 75.3771 60.6821 76.9124 59.0565C78.4928 57.4309 79.283 55.1054 79.283 52.08C79.283 49.0546 78.5154 46.7291 76.9801 45.1035C75.49 43.4779 73.6386 42.6651 71.426 42.6651C69.1682 42.6651 67.2943 43.4779 65.8042 45.1035C64.314 46.6839 63.569 49.0094 63.569 52.08C63.569 55.1054 64.2915 57.4309 65.7364 59.0565C67.2266 60.6821 69.0779 61.4949 71.2905 61.4949Z" fill="#8338EC"/>
  </mask>
  <g mask="url(#mask0_56_366)">
    <path d="M91.5443 38.7663L66.8619 27.2681L46.6254 30.4877L48.4651 65.2883L91.5443 38.7663Z" fill="#8338EC"/>
  </g>
</svg>