<svg width="34" height="33" viewBox="0 0 34 33" fill="none" xmlns="http://www.w3.org/2000/svg">
<path d="M17.1826 14.5938C17.476 14.5938 17.7139 14.8316 17.7139 15.125L17.7139 23.375C17.7139 23.6684 17.476 23.9063 17.1826 23.9063C16.8892 23.9063 16.6514 23.6684 16.6514 23.375L16.6514 15.125C16.6514 14.8316 16.8892 14.5938 17.1826 14.5938ZM2.90137 16.5C2.90137 8.61268 9.2953 2.21875 17.1826 2.21875C25.0699 2.21875 31.4639 8.61268 31.4639 16.5C31.4639 24.3873 25.0699 30.7813 17.1826 30.7813C9.2953 30.7813 2.90137 24.3873 2.90137 16.5ZM17.1826 3.28125C9.8821 3.28125 3.96387 9.19949 3.96387 16.5C3.96387 23.8005 9.88211 29.7188 17.1826 29.7188C24.4831 29.7188 30.4014 23.8005 30.4014 16.5C30.4014 9.19948 24.4831 3.28125 17.1826 3.28125ZM18.0576 11C18.0576 11.4832 17.6659 11.875 17.1826 11.875C16.6994 11.875 16.3076 11.4832 16.3076 11C16.3076 10.5168 16.6994 10.125 17.1826 10.125C17.6659 10.125 18.0576 10.5168 18.0576 11Z" fill="#716480" stroke="#716480"/>
</svg>
