<svg width="59" height="59" viewBox="0 0 59 59" fill="none" xmlns="http://www.w3.org/2000/svg">
<path d="M29.4999 59C27.5031 59.0005 25.5113 58.7997 23.5548 58.4007C19.7813 57.6279 16.1969 56.1196 13.0062 53.9619C8.26331 50.7601 4.55069 46.2516 2.31818 40.9826C1.56387 39.198 0.988111 37.3431 0.599336 35.445C-0.199779 31.5218 -0.199779 27.4777 0.599336 23.5545C1.3721 19.7812 2.8803 16.1969 5.03788 13.0062C8.23967 8.26331 12.7482 4.55069 18.0172 2.31818C19.8018 1.56387 21.6567 0.988114 23.5548 0.599336C27.478 -0.199779 31.5221 -0.199779 35.4453 0.599336C39.2187 1.37215 42.8031 2.88044 45.9938 5.03812C50.7367 8.23985 54.4493 12.7483 56.6819 18.0172C57.4362 19.8018 58.0119 21.6567 58.4007 23.5548C59.1998 27.478 59.1998 31.5221 58.4007 35.4453C57.6279 39.2187 56.1196 42.8031 53.9619 45.9938C50.7601 50.7367 46.2516 54.4494 40.9826 56.6819C39.198 57.4362 37.3431 58.0119 35.445 58.4007C33.4885 58.7997 31.4967 59.0005 29.4999 59ZM15.6413 35.344V42.7679C15.6388 43.0929 15.7066 43.4145 15.8403 43.7107C15.9641 43.981 16.1429 44.2224 16.3653 44.4195C16.8087 44.8071 17.3776 45.0207 17.9665 45.0205C18.3631 45.0244 18.7537 44.9228 19.0982 44.7261C19.4426 44.5293 19.7286 44.2446 19.9268 43.901L23.0132 38.7261C23.0579 38.6515 23.0982 38.5744 23.1341 38.4952L24.9347 35.3437H31.7922C32.9773 35.3433 34.1611 35.2661 35.3362 35.1126C36.3832 34.9747 37.4178 34.7553 38.4307 34.4565C39.2766 34.2162 40.0974 33.895 40.8818 33.4975C41.6621 33.1016 42.4021 32.6308 43.0914 32.0917C43.6794 31.6196 44.2133 31.0837 44.6833 30.494C45.119 29.9458 45.491 29.3498 45.792 28.7176C46.091 28.0886 46.3168 27.4274 46.4647 26.7468C46.6099 26.0772 46.6828 25.394 46.6823 24.7089C46.6949 23.3687 46.4316 22.0402 45.9087 20.8061C45.4305 19.6985 44.739 18.6958 43.8737 17.8553C43.8048 17.7883 43.7125 17.7511 43.6164 17.7515C43.5629 17.7516 43.5099 17.7629 43.461 17.7846C43.4121 17.8064 43.3683 17.8382 43.3324 17.878L32.6712 29.7117C32.4375 29.9711 32.1706 30.1987 31.8775 30.3886C31.5523 30.6219 31.1918 30.8015 30.8097 30.9204C30.044 31.1593 29.2237 31.1593 28.458 30.9204C28.0695 30.799 27.7034 30.6152 27.3739 30.3762L23.2736 27.3967C23.1961 27.3406 23.1007 27.315 23.0056 27.3248C22.9104 27.3345 22.8222 27.379 22.7577 27.4496L15.6435 35.329C15.642 35.3306 15.6412 35.3326 15.6413 35.3348C15.6413 35.337 15.6421 35.3392 15.6437 35.3409C15.6452 35.3425 15.6473 35.3436 15.6495 35.3437L15.6413 35.344ZM20.4575 13.9793C20.4572 13.9793 20.4569 13.9795 20.4567 13.9797C20.4564 13.9799 20.4563 13.9802 20.4562 13.9805C20.4562 13.9808 20.4561 13.9811 20.4558 13.9813C20.4556 13.9815 20.4553 13.9816 20.455 13.9817C19.8126 13.9975 19.1772 14.1189 18.5742 14.3409C18.2914 14.4458 18.0179 14.5743 17.7566 14.7251C17.5052 14.8702 17.2671 15.0372 17.0451 15.2243C16.8313 15.4042 16.6351 15.604 16.4591 15.8212C16.2886 16.0328 16.1405 16.2617 16.0175 16.5041C15.8959 16.7438 15.8022 16.9967 15.738 17.2576C15.6736 17.5214 15.6412 17.7919 15.6413 18.0634C15.6413 18.1383 15.6437 18.2118 15.6483 18.281C15.6484 18.2826 15.6482 18.2841 15.6476 18.2856C15.647 18.2871 15.6461 18.2884 15.6449 18.2894C15.6428 18.2915 15.6416 18.2944 15.6415 18.2974V23.6732C15.6434 23.7503 15.6683 23.825 15.713 23.8877C15.7578 23.9504 15.8204 23.9982 15.8926 24.0249C15.9649 24.0517 16.0435 24.0561 16.1183 24.0376C16.1931 24.0191 16.2607 23.9786 16.3122 23.9213L19.2944 20.6168C19.3608 20.5191 19.4321 20.4248 19.5081 20.3344L19.5323 20.3071C19.7114 20.0948 19.9146 19.9042 20.1379 19.739C20.3571 19.5764 20.5937 19.4386 20.8433 19.328C21.0917 19.2182 21.351 19.1347 21.6169 19.079C21.8829 19.0234 22.154 18.9953 22.4258 18.9951H22.4345C23.124 18.9945 23.8011 19.1788 24.3951 19.5289C24.5404 19.6134 24.6799 19.7076 24.8126 19.8108L24.8368 19.8296L28.8559 22.7488C28.9334 22.8048 29.0289 22.8304 29.1241 22.8206C29.2193 22.8108 29.3075 22.7663 29.372 22.6956L36.3656 14.933C36.4102 14.8843 36.4408 14.8245 36.454 14.7598C36.4672 14.6951 36.4626 14.6281 36.4407 14.5658C36.4187 14.5035 36.3803 14.4484 36.3294 14.4063C36.2785 14.3643 36.2172 14.3368 36.1519 14.3269C35.5683 14.2288 34.9758 14.1521 34.3905 14.0992C33.5371 14.0201 32.6366 13.9802 31.7136 13.9802L20.4575 13.9793Z" fill="#8338EC"/>
</svg>
