<svg width="33" height="33" viewBox="0 0 33 33" fill="none" xmlns="http://www.w3.org/2000/svg">
<path d="M11.0147 25.5225L10.8815 25.287L10.6116 25.2697C8.54333 25.1368 6.68169 23.8655 5.76231 21.9109L5.30986 22.1237L5.76231 21.9109L5.62451 21.618C4.58595 19.41 5.0743 16.7632 6.81691 15.1049C7.85086 14.1209 8.35702 12.6876 8.18355 11.2564L8.07774 10.3835C7.5502 6.03125 10.8398 2.21875 15.0501 2.21875L17.3207 2.21875C19.2092 2.21875 20.9109 2.98344 22.1672 4.21916C22.3738 4.42235 22.3824 4.76691 22.1842 4.9812C21.9942 5.18672 21.6861 5.19346 21.4881 4.99873L21.1375 5.35521L21.4881 4.99873C20.4118 3.94012 18.951 3.28125 17.3207 3.28125L15.0501 3.28125C11.4087 3.28125 8.6232 6.56552 9.06956 10.248L9.17537 11.1209C9.3916 12.9048 8.75895 14.6828 7.48387 15.8962C6.07257 17.2393 5.68466 19.3695 6.51908 21.1435L6.65689 21.4364C7.45447 23.1321 9.12741 24.2188 10.9721 24.2188L11.142 24.2188L11.142 24.2188L11.1514 24.2187C11.1541 24.2186 11.1567 24.2186 11.1594 24.2186C11.1625 24.2186 11.1657 24.2186 11.1688 24.2187L11.1688 24.2188L11.1781 24.2188L21.8106 24.2188L21.8106 24.2188L21.8199 24.2187L21.8318 24.2186L21.8319 24.2186L21.8375 24.2187L21.8375 24.2188L21.8467 24.2188L21.9332 24.2188C23.5071 24.2188 24.9651 23.3895 25.8031 22.0316C26.9835 20.1189 26.6734 17.6097 25.0574 16.062L24.9989 16.006C24.6424 15.6645 24.3336 15.2812 24.0768 14.8668C23.9188 14.612 23.9965 14.2779 24.2309 14.1234C24.4559 13.9751 24.7595 14.0369 24.9119 14.2828C25.122 14.6218 25.3751 14.9362 25.6682 15.2169L25.6682 15.2169L25.7267 15.2729C27.7056 17.1681 28.0931 20.2582 26.6394 22.6138C25.691 24.1506 24.105 25.1223 22.3725 25.2634L22.1084 25.2849L21.9779 25.5156L21.7229 25.9663C20.4439 28.2274 18.4909 29.4063 16.4943 29.4063C14.4978 29.4063 12.5448 28.2274 11.2658 25.9663L11.0147 25.5225ZM12.9433 25.2813L11.9754 25.2813L12.5356 26.0706C13.6284 27.6108 15.0824 28.3438 16.4943 28.3438C17.9063 28.3438 19.3602 27.6108 20.4531 26.0706L21.0132 25.2813L20.0454 25.2813L12.9433 25.2813ZM25.3278 9.625C25.3278 10.8823 24.3434 11.875 23.1612 11.875C21.9789 11.875 20.9945 10.8823 20.9945 9.625C20.9945 8.36774 21.9789 7.375 23.1612 7.375C24.3434 7.375 25.3278 8.36774 25.3278 9.625Z" fill="#716480" stroke="#716480"/>
</svg>
