<svg width="50" height="50" viewBox="0 0 50 50" fill="none" xmlns="http://www.w3.org/2000/svg">
<path d="M14.9582 10.8334L14.9582 39.4167C14.9582 40.4281 14.1383 41.248 13.127 41.248C12.1156 41.248 11.2957 40.4281 11.2957 39.4167L11.2957 10.8334C11.2957 9.822 12.1156 9.00212 13.127 9.00212C14.1383 9.00212 14.9582 9.822 14.9582 10.8334ZM23.1249 27.1667L23.1249 39.4167C23.1249 40.4281 22.305 41.248 21.2936 41.248C20.2823 41.248 19.4624 40.4281 19.4624 39.4167L19.4624 27.1667C19.4624 26.1553 20.2823 25.3355 21.2936 25.3355C22.305 25.3355 23.1249 26.1553 23.1249 27.1667ZM27.629 10.8334C27.629 9.822 28.4489 9.00212 29.4603 9.00212C30.4717 9.00212 31.2915 9.822 31.2915 10.8334L31.2915 39.4167C31.2915 40.4281 30.4717 41.248 29.4603 41.248C28.4489 41.248 27.629 40.4281 27.629 39.4167L27.629 10.8334ZM39.4582 27.1667L39.4582 39.4167C39.4582 40.4281 38.6383 41.248 37.627 41.248C36.6156 41.248 35.7957 40.4281 35.7957 39.4167L35.7957 27.1667C35.7957 26.1553 36.6156 25.3355 37.627 25.3355C38.6383 25.3355 39.4582 26.1553 39.4582 27.1667Z" fill="#FF980B" stroke="#FF980B" stroke-width="0.6" stroke-linecap="round"/>
</svg>
