<svg width="20" height="20" viewBox="0 0 20 20" fill="none" xmlns="http://www.w3.org/2000/svg">
<path fill-rule="evenodd" clip-rule="evenodd" d="M0.146484 10C0.146484 4.55773 4.55834 0.145874 10.0007 0.145874C15.443 0.145874 19.8548 4.55773 19.8548 10C19.8548 15.4423 15.443 19.8542 10.0007 19.8542C4.55834 19.8542 0.146484 15.4423 0.146484 10ZM8.85482 6.33337C8.85482 5.95368 8.54701 5.64587 8.16732 5.64587C7.78762 5.64587 7.47982 5.95368 7.47982 6.33337V13.6667C7.47982 14.0464 7.78762 14.3542 8.16732 14.3542C8.54701 14.3542 8.85482 14.0464 8.85482 13.6667V6.33337ZM12.5215 6.33337C12.5215 5.95368 12.2137 5.64587 11.834 5.64587C11.4543 5.64587 11.1465 5.95368 11.1465 6.33337V13.6667C11.1465 14.0464 11.4543 14.3542 11.834 14.3542C12.2137 14.3542 12.5215 14.0464 12.5215 13.6667V6.33337Z" fill="#46CE5C"/>
</svg>
