<svg width="20" height="20" viewBox="0 0 20 20" fill="none" xmlns="http://www.w3.org/2000/svg">
<path d="M8.83929 7.02257C8.91124 7.01451 9.06647 7.0283 9.4356 7.20977C9.79998 7.38889 10.2659 7.67478 10.9429 8.09143C11.6196 8.5079 12.0853 8.79533 12.4138 9.04268C12.7423 9.2901 12.8463 9.43564 12.8869 9.5329C13.0108 9.82937 13.0108 10.1707 12.8869 10.4672C12.8463 10.5644 12.7423 10.71 12.4138 10.9574C12.0853 11.2047 11.6196 11.4922 10.9429 11.9086C10.2659 12.3253 9.79998 12.6112 9.4356 12.7903C9.06647 12.9718 8.91124 12.9856 8.83929 12.9775C8.57206 12.9476 8.31519 12.7966 8.14124 12.5414C8.0825 12.4552 8.01357 12.2791 7.97593 11.8418C7.93876 11.4099 7.93815 10.8312 7.93815 10C7.93815 9.16884 7.93876 8.59017 7.97593 8.15828C8.01357 7.72098 8.0825 7.54485 8.14124 7.45867C8.31519 7.20345 8.57206 7.05251 8.83929 7.02257Z" fill="#FF6B00"/>
<path fill-rule="evenodd" clip-rule="evenodd" d="M0.146484 10C0.146484 4.55773 4.55834 0.145874 10.0007 0.145874C15.443 0.145874 19.8548 4.55773 19.8548 10C19.8548 15.4423 15.443 19.8542 10.0007 19.8542C4.55834 19.8542 0.146484 15.4423 0.146484 10ZM11.633 6.90158C10.9941 6.50835 10.4724 6.18727 10.0422 5.97581C9.60997 5.76332 9.15989 5.60305 8.6862 5.65612C8.00154 5.73283 7.39369 6.11407 7.00505 6.68426C6.7413 7.07123 6.64898 7.54091 6.60599 8.04037C6.56314 8.53835 6.56314 9.17658 6.56315 9.96711V10.033C6.56314 10.8235 6.56314 11.4617 6.60599 11.9597C6.64898 12.4592 6.7413 12.9289 7.00505 13.3158C7.39368 13.886 8.00153 14.2672 8.68619 14.344C9.15989 14.397 9.60997 14.2368 10.0422 14.0243C10.4724 13.8128 10.9941 13.4917 11.633 13.0985L11.6935 13.0613C12.3331 12.6677 12.8546 12.3467 13.2409 12.0558C13.6332 11.7604 13.9732 11.4341 14.1557 10.9971C14.4212 10.3616 14.4212 9.63853 14.1557 9.00296C13.9732 8.56593 13.6332 8.23971 13.2409 7.94432C12.8546 7.65338 12.3331 7.33242 11.6935 6.93882L11.633 6.90158Z" fill="#FF6B00"/>
</svg>
