<svg width="50" height="50" viewBox="0 0 50 50" fill="none" xmlns="http://www.w3.org/2000/svg">
<path d="M15.0778 10.8334L15.0778 39.4167C15.0778 40.4281 14.258 41.248 13.2466 41.248C12.2352 41.248 11.4153 40.4281 11.4153 39.4167L11.4153 10.8334C11.4153 9.822 12.2352 9.00212 13.2466 9.00212C14.258 9.00212 15.0778 9.822 15.0778 10.8334ZM23.2445 27.1667L23.2445 39.4167C23.2445 40.4281 22.4246 41.248 21.4133 41.248C20.4019 41.248 19.582 40.4281 19.582 39.4167L19.582 27.1667C19.582 26.1553 20.4019 25.3355 21.4133 25.3355C22.4246 25.3355 23.2445 26.1553 23.2445 27.1667ZM27.7487 10.8334C27.7487 9.822 28.5685 9.00212 29.5799 9.00212C30.5913 9.00212 31.4112 9.822 31.4112 10.8334L31.4112 39.4167C31.4112 40.4281 30.5913 41.248 29.5799 41.248C28.5685 41.248 27.7487 40.4281 27.7487 39.4167L27.7487 10.8334ZM39.5778 27.1667L39.5778 39.4167C39.5778 40.4281 38.758 41.248 37.7466 41.248C36.7352 41.248 35.9153 40.4281 35.9153 39.4167L35.9153 27.1667C35.9153 26.1553 36.7352 25.3355 37.7466 25.3355C38.758 25.3355 39.5778 26.1553 39.5778 27.1667Z" fill="#8338EC" stroke="#8338EC" stroke-width="0.6" stroke-linecap="round"/>
</svg>
