<svg width="34" height="33" viewBox="0 0 34 33" fill="none" xmlns="http://www.w3.org/2000/svg">
<g clip-path="url(#clip0_219_5280)">
<path d="M16.1484 31.625C16.1484 32.1945 16.6101 32.6562 17.1797 32.6562C17.7492 32.6562 18.2109 32.1945 18.2109 31.625L18.2109 28.875C18.2109 28.3055 17.7492 27.8437 17.1797 27.8437C16.6101 27.8437 16.1484 28.3055 16.1484 28.875L16.1484 31.625Z" fill="#716480"/>
<path d="M27.1455 27.9242C27.5482 28.3269 28.2012 28.3269 28.6039 27.9242C29.0066 27.5215 29.0066 26.8685 28.6039 26.4658L26.6593 24.5212C26.2566 24.1185 25.6037 24.1185 25.2009 24.5212C24.7982 24.924 24.7982 25.5769 25.2009 25.9797L27.1455 27.9242Z" fill="#716480"/>
<path d="M5.75549 26.4658C5.35276 26.8685 5.35276 27.5215 5.75549 27.9242C6.15822 28.3269 6.81117 28.3269 7.2139 27.9242L9.15845 25.9796C9.56117 25.5769 9.56117 24.924 9.15845 24.5212C8.75572 24.1185 8.10276 24.1185 7.70004 24.5212L5.75549 26.4658Z" fill="#716480"/>
<path fill-rule="evenodd" clip-rule="evenodd" d="M17.1797 25.7812C22.3056 25.7812 26.4609 21.6259 26.4609 16.5C26.4609 11.3741 22.3056 7.21875 17.1797 7.21875C12.0538 7.21875 7.89844 11.3741 7.89844 16.5C7.89844 21.6259 12.0538 25.7812 17.1797 25.7812ZM24.3984 16.5C24.3984 20.4868 21.1665 23.7187 17.1797 23.7187C13.1929 23.7187 9.96094 20.4868 9.96094 16.5C9.96094 12.5132 13.1929 9.28125 17.1797 9.28125C21.1665 9.28125 24.3984 12.5132 24.3984 16.5Z" fill="#716480"/>
<path d="M32.3047 17.5313C32.8742 17.5313 33.3359 17.0695 33.3359 16.5C33.3359 15.9305 32.8742 15.4688 32.3047 15.4688L29.5547 15.4688C28.9851 15.4688 28.5234 15.9305 28.5234 16.5C28.5234 17.0695 28.9851 17.5313 29.5547 17.5313L32.3047 17.5313Z" fill="#716480"/>
<path d="M4.80469 17.5312C5.37423 17.5312 5.83594 17.0695 5.83594 16.5C5.83594 15.9305 5.37423 15.4687 4.80469 15.4687L2.05469 15.4687C1.48514 15.4687 1.02344 15.9305 1.02344 16.5C1.02344 17.0695 1.48514 17.5312 2.05469 17.5312L4.80469 17.5312Z" fill="#716480"/>
<path d="M25.2009 7.02035C24.7982 7.42308 24.7982 8.07603 25.2009 8.47876C25.6037 8.88149 26.2566 8.88149 26.6593 8.47876L28.6039 6.53422C29.0066 6.13149 29.0066 5.47854 28.6039 5.07581C28.2012 4.67308 27.5482 4.67308 27.1455 5.07581L25.2009 7.02035Z" fill="#716480"/>
<path d="M7.70004 8.47876C8.10277 8.88149 8.75572 8.88149 9.15845 8.47876C9.56117 8.07603 9.56117 7.42308 9.15845 7.02035L7.2139 5.07581C6.81117 4.67308 6.15822 4.67308 5.75549 5.07581C5.35276 5.47854 5.35276 6.13149 5.75549 6.53422L7.70004 8.47876Z" fill="#716480"/>
<path d="M16.1484 4.125C16.1484 4.69454 16.6101 5.15625 17.1797 5.15625C17.7492 5.15625 18.2109 4.69454 18.2109 4.125L18.2109 1.375C18.2109 0.805459 17.7492 0.343752 17.1797 0.343752C16.6101 0.343752 16.1484 0.805458 16.1484 1.375L16.1484 4.125Z" fill="#716480"/>
<path d="M16.1484 31.625C16.1484 32.1945 16.6101 32.6562 17.1797 32.6562C17.7492 32.6562 18.2109 32.1945 18.2109 31.625L18.2109 28.875C18.2109 28.3055 17.7492 27.8437 17.1797 27.8437C16.6101 27.8437 16.1484 28.3055 16.1484 28.875L16.1484 31.625Z" stroke="#716480" stroke-width="0.3" stroke-linecap="round"/>
<path d="M27.1455 27.9242C27.5482 28.3269 28.2012 28.3269 28.6039 27.9242C29.0066 27.5215 29.0066 26.8685 28.6039 26.4658L26.6593 24.5212C26.2566 24.1185 25.6037 24.1185 25.2009 24.5212C24.7982 24.924 24.7982 25.5769 25.2009 25.9797L27.1455 27.9242Z" stroke="#716480" stroke-width="0.3" stroke-linecap="round"/>
<path d="M5.75549 26.4658C5.35276 26.8685 5.35276 27.5215 5.75549 27.9242C6.15822 28.3269 6.81117 28.3269 7.2139 27.9242L9.15845 25.9796C9.56117 25.5769 9.56117 24.924 9.15845 24.5212C8.75572 24.1185 8.10276 24.1185 7.70004 24.5212L5.75549 26.4658Z" stroke="#716480" stroke-width="0.3" stroke-linecap="round"/>
<path fill-rule="evenodd" clip-rule="evenodd" d="M17.1797 25.7812C22.3056 25.7812 26.4609 21.6259 26.4609 16.5C26.4609 11.3741 22.3056 7.21875 17.1797 7.21875C12.0538 7.21875 7.89844 11.3741 7.89844 16.5C7.89844 21.6259 12.0538 25.7812 17.1797 25.7812ZM24.3984 16.5C24.3984 20.4868 21.1665 23.7187 17.1797 23.7187C13.1929 23.7187 9.96094 20.4868 9.96094 16.5C9.96094 12.5132 13.1929 9.28125 17.1797 9.28125C21.1665 9.28125 24.3984 12.5132 24.3984 16.5Z" stroke="#716480" stroke-width="0.3" stroke-linecap="round"/>
<path d="M32.3047 17.5313C32.8742 17.5313 33.3359 17.0695 33.3359 16.5C33.3359 15.9305 32.8742 15.4688 32.3047 15.4688L29.5547 15.4688C28.9851 15.4688 28.5234 15.9305 28.5234 16.5C28.5234 17.0695 28.9851 17.5313 29.5547 17.5313L32.3047 17.5313Z" stroke="#716480" stroke-width="0.3" stroke-linecap="round"/>
<path d="M4.80469 17.5312C5.37423 17.5312 5.83594 17.0695 5.83594 16.5C5.83594 15.9305 5.37423 15.4687 4.80469 15.4687L2.05469 15.4687C1.48514 15.4687 1.02344 15.9305 1.02344 16.5C1.02344 17.0695 1.48514 17.5312 2.05469 17.5312L4.80469 17.5312Z" stroke="#716480" stroke-width="0.3" stroke-linecap="round"/>
<path d="M25.2009 7.02035C24.7982 7.42308 24.7982 8.07603 25.2009 8.47876C25.6037 8.88149 26.2566 8.88149 26.6593 8.47876L28.6039 6.53422C29.0066 6.13149 29.0066 5.47854 28.6039 5.07581C28.2012 4.67308 27.5482 4.67308 27.1455 5.07581L25.2009 7.02035Z" stroke="#716480" stroke-width="0.3" stroke-linecap="round"/>
<path d="M7.70004 8.47876C8.10277 8.88149 8.75572 8.88149 9.15845 8.47876C9.56117 8.07603 9.56117 7.42308 9.15845 7.02035L7.2139 5.07581C6.81117 4.67308 6.15822 4.67308 5.75549 5.07581C5.35276 5.47854 5.35276 6.13149 5.75549 6.53422L7.70004 8.47876Z" stroke="#716480" stroke-width="0.3" stroke-linecap="round"/>
<path d="M16.1484 4.125C16.1484 4.69454 16.6101 5.15625 17.1797 5.15625C17.7492 5.15625 18.2109 4.69454 18.2109 4.125L18.2109 1.375C18.2109 0.805459 17.7492 0.343752 17.1797 0.343752C16.6101 0.343752 16.1484 0.805458 16.1484 1.375L16.1484 4.125Z" stroke="#716480" stroke-width="0.3" stroke-linecap="round"/>
</g>
<defs>
<clipPath id="clip0_219_5280">
<rect width="33" height="33" fill="white" transform="translate(33.6797 33) rotate(-180)"/>
</clipPath>
</defs>
</svg>
