<svg width="39" height="36" viewBox="0 0 39 36" fill="none" xmlns="http://www.w3.org/2000/svg">
<path d="M23.3338 29.7036C18.3804 29.0225 18.3804 27.2269 18.3804 26.2362V25.679C19.6417 24.5109 20.5438 23.0073 20.9809 21.3447C22.467 21.3447 22.8385 18.1869 22.8385 17.7535C22.8385 17.32 22.7146 15.5244 22.0335 15.3387C24.5102 6.67016 17.0801 2.95509 10.6406 7.41318C7.91625 7.41318 7.0494 11.3759 8.04008 15.3387C7.35899 15.3387 7.23515 17.1962 7.23515 17.6915C7.23515 18.1869 7.60666 21.2828 9.09269 21.2828C9.58803 23.0784 10.9502 24.5644 12.1267 25.617V26.2362C12.1267 27.2269 11.7552 29.0844 6.73981 29.7036C1.72446 30.3228 0.981445 35.1524 0.981445 35.1524H28.2253C28.2253 35.1524 28.2872 30.3847 23.3338 29.7036Z" fill="#FF006E"/>
<path d="M32.993 25.2454C28.0396 24.2547 28.2254 22.2734 28.2254 21.2827V20.292C30.8963 20.2643 33.5553 19.9319 36.1508 19.3013C34.1076 17.258 32.1881 16.3912 32.1881 7.84649C32.1881 -2.24613 22.2812 0.911685 22.2812 0.911685C21.4007 0.869716 20.5239 1.05226 19.7332 1.44217C18.9426 1.83209 18.264 2.41657 17.7612 3.14073C19.9271 3.46464 21.8815 4.61954 23.21 6.36046C24.8818 8.52759 25.3771 11.4996 24.696 14.7813C25.1033 15.6975 25.3142 16.6888 25.3152 17.6914C25.3152 18.9298 24.8199 21.9638 22.9004 23.2021C22.4341 24.4208 21.7641 25.5515 20.919 26.5457C21.7528 26.9564 22.6556 27.2083 23.5815 27.2887C24.6409 27.3737 25.6714 27.6759 26.6088 28.1766C27.5462 28.6773 28.3705 29.3657 29.0303 30.1988H38.1322C38.1322 30.1988 38.1322 26.298 32.993 25.2454Z" fill="#FF006E"/>
</svg>
