<svg width="16" height="16" viewBox="0 0 16 16" fill="none" xmlns="http://www.w3.org/2000/svg">
<path d="M3.70712 4.03225C4.10313 3.74453 4.58056 3.59551 5.23145 3.51834V4.06042C5.23145 4.57819 5.65118 4.99792 6.16895 4.99792C6.68671 4.99792 7.10645 4.57819 7.10645 4.06042V3.43718C7.39651 3.43542 7.7082 3.43542 8.04395 3.43542C8.37969 3.43542 8.69138 3.43542 8.98145 3.43718V4.06042C8.98145 4.57819 9.40118 4.99792 9.91895 4.99792C10.4367 4.99792 10.8564 4.57819 10.8564 4.06042V3.51834C11.5073 3.59551 11.9848 3.74453 12.3808 4.03225C12.6461 4.225 12.8794 4.4583 13.0721 4.7236C13.4248 5.20907 13.5691 5.81691 13.6281 6.71667H2.45978C2.51879 5.81691 2.66305 5.20907 3.01577 4.7236C3.20852 4.4583 3.44182 4.225 3.70712 4.03225Z" fill="white"/>
<path fill-rule="evenodd" clip-rule="evenodd" d="M2.42563 7.65404C2.41895 8.0703 2.41895 8.53603 2.41895 9.06042C2.41895 11.404 2.41895 12.5758 3.01577 13.3973C3.20852 13.6625 3.44182 13.8959 3.70712 14.0886C4.52857 14.6854 5.70036 14.6854 8.04395 14.6854C8.56828 14.6854 9.03397 14.6854 9.45019 14.6787L9.45019 14.6349C9.45015 14.1024 9.45012 13.778 9.49444 13.4982C9.73799 11.9605 10.944 10.7545 12.4818 10.5109C12.7616 10.4666 13.0859 10.4666 13.6184 10.4667L13.6623 10.4667C13.6689 10.0504 13.6689 9.58476 13.6689 9.06042C13.6689 8.53603 13.6689 8.0703 13.6623 7.65404L13.6508 7.65417H2.43695L2.42563 7.65404ZM6.16895 9.21667C5.91006 9.21667 5.7002 9.42654 5.7002 9.68542C5.7002 9.94431 5.91006 10.1542 6.16895 10.1542H9.91895C10.1778 10.1542 10.3877 9.94431 10.3877 9.68542C10.3877 9.42654 10.1778 9.21667 9.91895 9.21667H6.16895Z" fill="white"/>
<path d="M12.3808 14.0886C11.8953 14.4413 11.2875 14.5856 10.3877 14.6446C10.3878 14.0756 10.3899 13.8376 10.4204 13.6449C10.6004 12.5083 11.4918 11.6169 12.6284 11.4369C12.8212 11.4064 13.0591 11.4043 13.6281 11.4042C13.5691 12.3039 13.4248 12.9118 13.0721 13.3973C12.8794 13.6625 12.6461 13.8959 12.3808 14.0886Z" fill="white"/>
<path d="M6.6377 2.18542C6.6377 1.92654 6.42783 1.71667 6.16895 1.71667C5.91006 1.71667 5.7002 1.92654 5.7002 2.18542V4.06042C5.7002 4.31931 5.91006 4.52917 6.16895 4.52917C6.42783 4.52917 6.6377 4.31931 6.6377 4.06042V2.18542Z" fill="white"/>
<path d="M10.3877 2.18542C10.3877 1.92654 10.1778 1.71667 9.91895 1.71667C9.66006 1.71667 9.4502 1.92654 9.4502 2.18542V4.06042C9.4502 4.31931 9.66006 4.52917 9.91895 4.52917C10.1778 4.52917 10.3877 4.31931 10.3877 4.06042V2.18542Z" fill="white"/>
</svg>
