<svg width="16" height="16" viewBox="0 0 16 16" fill="none" xmlns="http://www.w3.org/2000/svg">
<path fill-rule="evenodd" clip-rule="evenodd" d="M5.23145 3.51834C4.58056 3.59551 4.10313 3.74453 3.70712 4.03225C3.44182 4.225 3.20852 4.4583 3.01577 4.7236C2.41895 5.54505 2.41895 6.71684 2.41895 9.06042C2.41895 11.404 2.41895 12.5758 3.01577 13.3973C3.20852 13.6625 3.44182 13.8959 3.70712 14.0886C4.52857 14.6854 5.70036 14.6854 8.04395 14.6854C8.56828 14.6854 9.03397 14.6854 9.45019 14.6787L9.45019 14.6349C9.45015 14.1024 9.45012 13.778 9.49444 13.4982C9.73799 11.9605 10.944 10.7545 12.4818 10.5109C12.7616 10.4666 13.0859 10.4666 13.6184 10.4667L13.6623 10.4667C13.6689 10.0505 13.6689 9.58494 13.6689 9.06071C13.6689 6.71713 13.6689 5.54505 13.0721 4.7236C12.8794 4.4583 12.6461 4.225 12.3808 4.03225C11.9848 3.74453 11.5073 3.59551 10.8564 3.51834V4.06042C10.8564 4.57819 10.4367 4.99792 9.91895 4.99792C9.40118 4.99792 8.98145 4.57819 8.98145 4.06042V3.43718C8.69138 3.43542 8.37969 3.43542 8.04395 3.43542C7.7082 3.43542 7.39651 3.43542 7.10645 3.43718V4.06042C7.10645 4.57819 6.68671 4.99792 6.16895 4.99792C5.65118 4.99792 5.23145 4.57819 5.23145 4.06042V3.51834ZM4.91895 7.18542C5.26412 7.18542 5.54395 6.9056 5.54395 6.56042C5.54395 6.21525 5.26412 5.93542 4.91895 5.93542C4.57377 5.93542 4.29395 6.21525 4.29395 6.56042C4.29395 6.9056 4.57377 7.18542 4.91895 7.18542ZM5.54395 9.06042C5.54395 9.4056 5.26412 9.68542 4.91895 9.68542C4.57377 9.68542 4.29395 9.4056 4.29395 9.06042C4.29395 8.71525 4.57377 8.43542 4.91895 8.43542C5.26412 8.43542 5.54395 8.71525 5.54395 9.06042ZM8.04395 7.18542C8.38912 7.18542 8.66895 6.9056 8.66895 6.56042C8.66895 6.21525 8.38912 5.93542 8.04395 5.93542C7.69877 5.93542 7.41895 6.21525 7.41895 6.56042C7.41895 6.9056 7.69877 7.18542 8.04395 7.18542ZM8.66895 9.06042C8.66895 9.4056 8.38912 9.68542 8.04395 9.68542C7.69877 9.68542 7.41895 9.4056 7.41895 9.06042C7.41895 8.71525 7.69877 8.43542 8.04395 8.43542C8.38912 8.43542 8.66895 8.71525 8.66895 9.06042ZM8.04395 12.1854C8.38912 12.1854 8.66895 11.9056 8.66895 11.5604C8.66895 11.2152 8.38912 10.9354 8.04395 10.9354C7.69877 10.9354 7.41895 11.2152 7.41895 11.5604C7.41895 11.9056 7.69877 12.1854 8.04395 12.1854ZM11.7939 6.56042C11.7939 6.9056 11.5141 7.18542 11.1689 7.18542C10.8238 7.18542 10.5439 6.9056 10.5439 6.56042C10.5439 6.21525 10.8238 5.93542 11.1689 5.93542C11.5141 5.93542 11.7939 6.21525 11.7939 6.56042ZM11.1689 9.68542C11.5141 9.68542 11.7939 9.4056 11.7939 9.06042C11.7939 8.71525 11.5141 8.43542 11.1689 8.43542C10.8238 8.43542 10.5439 8.71525 10.5439 9.06042C10.5439 9.4056 10.8238 9.68542 11.1689 9.68542ZM5.54395 11.5604C5.54395 11.9056 5.26412 12.1854 4.91895 12.1854C4.57377 12.1854 4.29395 11.9056 4.29395 11.5604C4.29395 11.2152 4.57377 10.9354 4.91895 10.9354C5.26412 10.9354 5.54395 11.2152 5.54395 11.5604Z" fill="white"/>
<path d="M13.6281 11.4042C13.0591 11.4043 12.8212 11.4064 12.6284 11.4369C11.4918 11.6169 10.6004 12.5083 10.4204 13.6449C10.3899 13.8376 10.3878 14.0756 10.3877 14.6446C11.2875 14.5856 11.8953 14.4413 12.3808 14.0886C12.6461 13.8959 12.8794 13.6625 13.0721 13.3973C13.4248 12.9118 13.5691 12.3039 13.6281 11.4042Z" fill="white"/>
<path d="M6.6377 2.18542C6.6377 1.92654 6.42783 1.71667 6.16895 1.71667C5.91006 1.71667 5.7002 1.92654 5.7002 2.18542V4.06042C5.7002 4.31931 5.91006 4.52917 6.16895 4.52917C6.42783 4.52917 6.6377 4.31931 6.6377 4.06042V2.18542Z" fill="white"/>
<path d="M10.3877 2.18542C10.3877 1.92654 10.1778 1.71667 9.91895 1.71667C9.66006 1.71667 9.4502 1.92654 9.4502 2.18542V4.06042C9.4502 4.31931 9.66006 4.52917 9.91895 4.52917C10.1778 4.52917 10.3877 4.31931 10.3877 4.06042V2.18542Z" fill="white"/>
</svg>
