<svg width="16" height="16" viewBox="0 0 16 16" fill="none" xmlns="http://www.w3.org/2000/svg">
<path fill-rule="evenodd" clip-rule="evenodd" d="M2.5392 3.79879C1.94238 4.62025 1.94238 5.79204 1.94238 8.13562C1.94238 10.4792 1.94238 11.651 2.5392 12.4724C2.73195 12.7377 2.96526 12.9711 3.23055 13.1638C4.05201 13.7606 5.2238 13.7606 7.56738 13.7606C9.91097 13.7606 11.0828 13.7606 11.9042 13.1638C12.1695 12.9711 12.4028 12.7377 12.5956 12.4724C13.1924 11.651 13.1924 10.4792 13.1924 8.13562C13.1924 5.79204 13.1924 4.62025 12.5956 3.79879C12.4028 3.5335 12.1695 3.30019 11.9042 3.10744C11.0828 2.51062 9.91097 2.51062 7.56738 2.51062C5.2238 2.51062 4.05201 2.51062 3.23055 3.10744C2.96526 3.30019 2.73195 3.5335 2.5392 3.79879ZM11.0253 7.21559C11.2076 7.03172 11.2062 6.73493 11.0224 6.55269C10.8385 6.37045 10.5417 6.37177 10.3595 6.55565L9.26738 7.6575C8.82417 8.10468 8.51915 8.41144 8.26069 8.619C8.00963 8.82062 7.84837 8.88979 7.70395 8.9082C7.61326 8.91976 7.5215 8.91976 7.43082 8.9082C7.28639 8.88979 7.12513 8.82062 6.87407 8.619C6.61562 8.41144 6.31059 8.10469 5.86738 7.6575L4.77531 6.55565C4.59307 6.37177 4.29628 6.37045 4.11241 6.55269C3.92854 6.73493 3.92721 7.03172 4.10945 7.2156L5.22119 8.3373C5.6399 8.75978 5.98213 9.10508 6.28705 9.34996C6.60412 9.6046 6.92596 9.78894 7.31228 9.83818C7.48167 9.85977 7.65309 9.85977 7.82248 9.83818C8.20881 9.78894 8.53064 9.6046 8.84772 9.34996C9.15264 9.10508 9.49485 8.75979 9.91357 8.33731L11.0253 7.21559Z" fill="white"/>
</svg>
