<svg width="16" height="16" viewBox="0 0 16 16" fill="none" xmlns="http://www.w3.org/2000/svg">
<path fill-rule="evenodd" clip-rule="evenodd" d="M2.5392 3.29879C1.94238 4.12025 1.94238 5.29204 1.94238 7.63562C1.94238 9.9792 1.94238 11.151 2.5392 11.9724C2.73195 12.2377 2.96526 12.4711 3.23055 12.6638C4.05201 13.2606 5.2238 13.2606 7.56738 13.2606C9.91097 13.2606 11.0828 13.2606 11.9042 12.6638C12.1695 12.4711 12.4028 12.2377 12.5956 11.9724C13.1924 11.151 13.1924 9.9792 13.1924 7.63562C13.1924 5.29204 13.1924 4.12025 12.5956 3.29879C12.4028 3.0335 12.1695 2.80019 11.9042 2.60744C11.0828 2.01062 9.91097 2.01062 7.56738 2.01062C5.2238 2.01062 4.05201 2.01062 3.23055 2.60744C2.96526 2.80019 2.73195 3.0335 2.5392 3.29879ZM11.0416 6.07329C11.2143 5.88041 11.1979 5.58407 11.0051 5.41139C10.8122 5.2387 10.5158 5.25507 10.3431 5.44795L8.23742 7.79994C7.81073 8.27652 7.52338 8.59579 7.27771 8.80228C7.04367 8.99899 6.90621 9.04187 6.78613 9.04187C6.66605 9.04187 6.52859 8.99899 6.29456 8.80228C6.04888 8.59579 5.76154 8.27652 5.33485 7.79994L4.79162 7.19318C4.61893 7.0003 4.32259 6.98393 4.12971 7.15661C3.93684 7.3293 3.92047 7.62564 4.09315 7.81852L4.65959 8.4512C5.05699 8.89511 5.38847 9.26538 5.69135 9.51995C6.01175 9.78925 6.35734 9.97937 6.78613 9.97937C7.21493 9.97937 7.56051 9.78925 7.88091 9.51995C8.18379 9.26538 8.51527 8.89511 8.91267 8.4512L11.0416 6.07329Z" fill="white"/>
</svg>
