<svg width="14" height="13" viewBox="0 0 14 13" fill="none" xmlns="http://www.w3.org/2000/svg">
<path d="M3.45117 3.56042C3.22681 3.56042 3.04492 3.72832 3.04492 3.93542C3.04492 4.14253 3.22681 4.31042 3.45117 4.31042H11.0345C11.2589 4.31042 11.4408 4.14253 11.4408 3.93542C11.4408 3.72832 11.2589 3.56042 11.0345 3.56042H3.45117Z" fill="#3A86FF"/>
<path d="M3.45117 5.56042C3.22681 5.56042 3.04492 5.72832 3.04492 5.93542C3.04492 6.14253 3.22681 6.31042 3.45117 6.31042H6.70117C6.92554 6.31042 7.10742 6.14253 7.10742 5.93542C7.10742 5.72832 6.92554 5.56042 6.70117 5.56042H3.45117Z" fill="#3A86FF"/>
<path d="M3.45117 7.56042C3.22681 7.56042 3.04492 7.72832 3.04492 7.93542C3.04492 8.14253 3.22681 8.31042 3.45117 8.31042H11.0345C11.2589 8.31042 11.4408 8.14253 11.4408 7.93542C11.4408 7.72832 11.2589 7.56042 11.0345 7.56042H3.45117Z" fill="#3A86FF"/>
<path d="M3.45117 9.56042C3.22681 9.56042 3.04492 9.72832 3.04492 9.93542C3.04492 10.1425 3.22681 10.3104 3.45117 10.3104H6.70117C6.92554 10.3104 7.10742 10.1425 7.10742 9.93542C7.10742 9.72832 6.92554 9.56042 6.70117 9.56042H3.45117Z" fill="#3A86FF"/>
<path d="M3.45117 3.56042C3.22681 3.56042 3.04492 3.72832 3.04492 3.93542C3.04492 4.14253 3.22681 4.31042 3.45117 4.31042H11.0345C11.2589 4.31042 11.4408 4.14253 11.4408 3.93542C11.4408 3.72832 11.2589 3.56042 11.0345 3.56042H3.45117Z" stroke="#3A86FF" stroke-width="0.3" stroke-linecap="round"/>
<path d="M3.45117 5.56042C3.22681 5.56042 3.04492 5.72832 3.04492 5.93542C3.04492 6.14253 3.22681 6.31042 3.45117 6.31042H6.70117C6.92554 6.31042 7.10742 6.14253 7.10742 5.93542C7.10742 5.72832 6.92554 5.56042 6.70117 5.56042H3.45117Z" stroke="#3A86FF" stroke-width="0.3" stroke-linecap="round"/>
<path d="M3.45117 7.56042C3.22681 7.56042 3.04492 7.72832 3.04492 7.93542C3.04492 8.14253 3.22681 8.31042 3.45117 8.31042H11.0345C11.2589 8.31042 11.4408 8.14253 11.4408 7.93542C11.4408 7.72832 11.2589 7.56042 11.0345 7.56042H3.45117Z" stroke="#3A86FF" stroke-width="0.3" stroke-linecap="round"/>
<path d="M3.45117 9.56042C3.22681 9.56042 3.04492 9.72832 3.04492 9.93542C3.04492 10.1425 3.22681 10.3104 3.45117 10.3104H6.70117C6.92554 10.3104 7.10742 10.1425 7.10742 9.93542C7.10742 9.72832 6.92554 9.56042 6.70117 9.56042H3.45117Z" stroke="#3A86FF" stroke-width="0.3" stroke-linecap="round"/>
</svg>
