<svg width="16" height="16" viewBox="0 0 16 16" fill="none" xmlns="http://www.w3.org/2000/svg">
<g clip-path="url(#clip0_594_6512)">
<path fill-rule="evenodd" clip-rule="evenodd" d="M5.44132 3.10767C6.26054 0.586343 9.82755 0.586343 10.6468 3.10767C10.8876 3.84897 11.5784 4.35087 12.3579 4.35087C15.009 4.35087 16.1112 7.74329 13.9665 9.30156C13.3359 9.7597 13.072 10.5718 13.3129 11.3131C14.1321 13.8344 11.2463 15.9311 9.10157 14.3728C8.47099 13.9146 7.61711 13.9146 6.98652 14.3728C4.84175 15.9311 1.95598 13.8344 2.77521 11.3131C3.01608 10.5718 2.75221 9.7597 2.12162 9.30156C-0.0231446 7.74329 1.07912 4.35087 3.7302 4.35087C4.50965 4.35087 5.20045 3.84897 5.44132 3.10767ZM9.73799 5.21381C9.65493 4.96861 9.38883 4.83717 9.14363 4.92022C8.89843 5.00328 8.76699 5.26939 8.85005 5.51458C9.11949 6.31 9.88366 6.83146 10.7268 6.83146C10.9857 6.83146 11.1956 6.6216 11.1956 6.36271C11.1956 6.10383 10.9857 5.89396 10.7268 5.89396C10.2646 5.89396 9.87193 5.6092 9.73799 5.21381Z" fill="white"/>
</g>
<defs>
<clipPath id="clip0_594_6512">
<rect width="15" height="15" fill="white" transform="translate(0.543945 0.435425)"/>
</clipPath>
</defs>
</svg>
