<svg width="15" height="16" viewBox="0 0 15 16" fill="none" xmlns="http://www.w3.org/2000/svg">
<path d="M10.9742 6.32781C11.1469 6.13493 11.1305 5.83859 10.9377 5.6659C10.7448 5.49322 10.4484 5.50959 10.2758 5.70247L8.17003 8.05445C7.74335 8.53104 7.456 8.85031 7.21032 9.0568C6.97629 9.25351 6.83883 9.29639 6.71875 9.29639C6.59867 9.29639 6.46121 9.25351 6.22718 9.0568C5.9815 8.85031 5.69415 8.53104 5.26747 8.05445L4.72423 7.44769C4.55155 7.25482 4.25521 7.23845 4.06233 7.41113C3.86945 7.58381 3.85308 7.88016 4.02577 8.07303L4.59222 8.70573C4.98962 9.14964 5.32109 9.5199 5.62397 9.77447C5.94437 10.0438 6.28995 10.2339 6.71875 10.2339C7.14755 10.2339 7.49313 10.0438 7.81353 9.77447C8.11641 9.5199 8.44788 9.14964 8.84528 8.70574L10.9742 6.32781Z" fill="#716480"/>
<path fill-rule="evenodd" clip-rule="evenodd" d="M10.2897 1.87372C9.57587 1.79638 8.67612 1.79638 7.52828 1.79639H7.47172C6.32388 1.79638 5.42413 1.79638 4.7103 1.87372C3.98184 1.95264 3.3916 2.11659 2.88765 2.48273C2.58256 2.70439 2.31426 2.97269 2.0926 3.27778C1.72645 3.78174 1.5625 4.37197 1.48358 5.10043C1.40624 5.81427 1.40624 6.71402 1.40625 7.86186V7.91842C1.40624 9.06625 1.40624 9.966 1.48358 10.6798C1.5625 11.4083 1.72645 11.9985 2.0926 12.5025C2.31426 12.8076 2.58256 13.0759 2.88765 13.2975C3.3916 13.6637 3.98184 13.8276 4.7103 13.9066C5.42412 13.9839 6.32385 13.9839 7.47166 13.9839H7.5283C8.6761 13.9839 9.57588 13.9839 10.2897 13.9066C11.0182 13.8276 11.6084 13.6637 12.1124 13.2975C12.4174 13.0759 12.6857 12.8076 12.9074 12.5025C13.2735 11.9985 13.4375 11.4083 13.5164 10.6798C13.5938 9.96602 13.5938 9.06628 13.5938 7.91848V7.86184C13.5938 6.71404 13.5938 5.81426 13.5164 5.10043C13.4375 4.37197 13.2735 3.78174 12.9074 3.27778C12.6857 2.97269 12.4174 2.70439 12.1124 2.48273C11.6084 2.11659 11.0182 1.95264 10.2897 1.87372ZM3.4387 3.24119C3.7562 3.01051 4.16258 2.87604 4.81128 2.80576C5.46875 2.73453 6.31777 2.73389 7.5 2.73389C8.68223 2.73389 9.53125 2.73453 10.1887 2.80576C10.8374 2.87604 11.2438 3.01051 11.5613 3.24119C11.7868 3.40502 11.9851 3.60333 12.149 3.82883C12.3796 4.14634 12.5141 4.55272 12.5844 5.20141C12.6556 5.85888 12.6562 6.7079 12.6562 7.89014C12.6562 9.07237 12.6556 9.92139 12.5844 10.5789C12.5141 11.2276 12.3796 11.6339 12.149 11.9514C11.9851 12.1769 11.7868 12.3753 11.5613 12.5391C11.2438 12.7698 10.8374 12.9042 10.1887 12.9745C9.53125 13.0457 8.68223 13.0464 7.5 13.0464C6.31777 13.0464 5.46875 13.0457 4.81128 12.9745C4.16258 12.9042 3.7562 12.7698 3.4387 12.5391C3.21319 12.3753 3.01489 12.1769 2.85105 11.9514C2.62037 11.6339 2.48591 11.2276 2.41563 10.5789C2.34439 9.92139 2.34375 9.07237 2.34375 7.89014C2.34375 6.7079 2.34439 5.85888 2.41563 5.20141C2.48591 4.55272 2.62037 4.14634 2.85105 3.82883C3.01489 3.60333 3.21319 3.40502 3.4387 3.24119Z" fill="#716480"/>
</svg>
