<svg width="16" height="16" viewBox="0 0 16 16" fill="none" xmlns="http://www.w3.org/2000/svg">
<g clip-path="url(#clip0_594_6516)">
<path d="M4.27427 1.58272C4.47643 1.421 4.5092 1.12602 4.34748 0.923866C4.18575 0.721712 3.89077 0.688937 3.68862 0.85066L2.12612 2.10066C1.92397 2.26238 1.89119 2.55736 2.05291 2.75952C2.21464 2.96167 2.50962 2.99445 2.71177 2.83272L4.27427 1.58272Z" fill="white"/>
<path d="M12.3993 0.85066C12.1971 0.688937 11.9021 0.721712 11.7404 0.923866C11.5787 1.12602 11.6115 1.421 11.8136 1.58272L13.3761 2.83272C13.5783 2.99445 13.8733 2.96167 14.035 2.75952C14.1967 2.55736 14.1639 2.26238 13.9618 2.10066L12.3993 0.85066Z" fill="white"/>
<path fill-rule="evenodd" clip-rule="evenodd" d="M8.04395 1.21669C4.33328 1.21669 1.3252 4.22478 1.3252 7.93544C1.3252 11.6461 4.33328 14.6542 8.04395 14.6542C11.7546 14.6542 14.7627 11.6461 14.7627 7.93544C14.7627 4.22478 11.7546 1.21669 8.04395 1.21669ZM8.5127 5.43544C8.5127 5.17656 8.30283 4.96669 8.04395 4.96669C7.78506 4.96669 7.5752 5.17656 7.5752 5.43544V7.13884C7.57518 7.47248 7.57518 7.75626 7.59839 7.99177C7.62312 8.24265 7.67675 8.47519 7.80547 8.69813C7.93419 8.92107 8.10875 9.08378 8.31366 9.23064C8.50601 9.3685 8.75178 9.51038 9.04073 9.67718L9.43342 9.9039C9.65762 10.0333 9.9443 9.95652 10.0737 9.73231C10.2032 9.50811 10.1264 9.22143 9.90216 9.09199L9.52834 8.87617C9.21542 8.69551 9.01016 8.5764 8.85979 8.46863C8.7178 8.36687 8.65612 8.2965 8.61737 8.22938C8.57861 8.16225 8.54851 8.07365 8.53137 7.8998C8.51322 7.71569 8.5127 7.47838 8.5127 7.11705L8.5127 5.43544Z" fill="white"/>
</g>
<defs>
<clipPath id="clip0_594_6516">
<rect width="15" height="15" fill="white" transform="translate(0.543945 0.435425)"/>
</clipPath>
</defs>
</svg>
