<svg width="20" height="11" viewBox="0 0 20 11" fill="none" xmlns="http://www.w3.org/2000/svg">
<circle cx="5.07333" cy="5.63559" r="4.97079" fill="white"/>
<circle cx="15.0147" cy="5.63559" r="4.97079" fill="white"/>
<path d="M7.57496 4.31729C7.6523 4.22448 7.63976 4.08655 7.54695 4.0092C7.45414 3.93186 7.3162 3.9444 7.23886 4.03721L5.66658 5.92395C5.35075 6.30294 5.12858 6.56872 4.93587 6.74274C4.74766 6.91269 4.61777 6.96671 4.49024 6.96671C4.36271 6.96671 4.23282 6.91269 4.04461 6.74274C3.8519 6.56872 3.62973 6.30294 3.3139 5.92395L2.90829 5.43721C2.83095 5.3444 2.69301 5.33186 2.6002 5.4092C2.50739 5.48655 2.49485 5.62448 2.57219 5.71729L2.98906 6.21754C3.29102 6.57989 3.53283 6.87008 3.7514 7.06744C3.97716 7.27131 4.20795 7.40421 4.49024 7.40421C4.77253 7.40421 5.00332 7.27131 5.22908 7.06744C5.44765 6.87008 5.68946 6.5799 5.99141 6.21755L7.57496 4.31729Z" fill="#FF006E" stroke="#FF006E" stroke-width="0.6" stroke-linecap="round"/>
<path d="M17.2107 3.74867C17.2961 3.66325 17.2961 3.52474 17.2107 3.43931C17.1252 3.35389 16.9867 3.35389 16.9013 3.43931L15.0143 5.32631L13.1273 3.43932C13.0419 3.35389 12.9034 3.35389 12.818 3.43932C12.7325 3.52474 12.7325 3.66325 12.818 3.74867L14.705 5.63566L12.818 7.52265C12.7326 7.60807 12.7326 7.74658 12.818 7.83201C12.9034 7.91743 13.0419 7.91743 13.1273 7.83201L15.0143 5.94502L16.9013 7.83201C16.9867 7.91743 17.1252 7.91743 17.2107 7.83201C17.2961 7.74658 17.2961 7.60808 17.2107 7.52265L15.3237 5.63567L17.2107 3.74867Z" fill="#FF006E" stroke="#FF006E" stroke-width="0.6" stroke-linecap="round"/>
</svg>
